<?xml version="1.0" encoding="UTF-8"?>
<svg id="Layer_2" data-name="Layer 2" xmlns="http://www.w3.org/2000/svg" viewBox="0 0 1640.49 806.78">
  <defs>
    <style>
      .cls-1 {
        fill: #fff;
      }
    </style>
  </defs>
  <g id="_1:1" data-name="1:1">
    <g>
      <path class="cls-1" d="M320.36,524.12l-265.84-62.08C18.18,453.81,0,433.92,0,402.34c0-20.43,8.49-38.34,25.47-53.73l207.74-185.05-93.92-21.09c-16.71-4.24-30.51-12.47-41.39-24.67-10.88-12.2-16.32-26.79-16.32-43.78,0-5.83.8-11.8,2.39-17.91C92.73,18.7,115.81,0,153.22,0c6.1,0,12.07.8,17.91,2.39l260.27,60.09c30.77,7.16,46.16,24.94,46.16,53.33,0,4.78-.53,9.95-1.59,15.52-3.72,15.66-12.6,29.72-26.66,42.18l-208.93,184.26,112.62,25.87c16.71,3.98,30.38,12.08,40.99,24.28,10.61,12.21,15.92,26.93,15.92,44.17,0,6.11-.53,12.08-1.59,17.91-8.76,37.14-31.84,55.71-69.25,55.71-5.84,0-12.08-.53-18.7-1.59Z"/>
      <path class="cls-1" d="M532.05,535.1c10.22-5.82,23.74-8.59,40.55-8.32,20.2.45,37.48,6.21,51.85,17.29,14.37,11.08,23.48,25.96,27.31,44.66,1.42,6.91,1.98,14.18,1.68,21.81l-2.49,103.08c-.24,9.73-2.98,17.99-8.23,24.77-5.25,6.78-11.98,11.02-20.2,12.71-2.74.56-5.59.9-8.54,1.01-8.99-.27-16.53-3.12-22.61-8.58-6.08-5.45-10-12.47-11.76-21.04-.68-3.33-1.05-6.92-1.09-10.76l2.22-93.53c.05-3.36-.19-6.35-.72-8.97-1.51-7.38-5.22-12.73-11.11-16.06-5.89-3.32-12.48-4.24-19.74-2.75-12.27,2.52-18.59,11.32-18.97,26.42l-2.54,93.79c-.17,9.47-2.84,17.65-8,24.54-5.17,6.89-12.03,11.22-20.61,12.98-2.62.54-5.49.75-8.62.65-8.61-.22-16.01-3.01-22.2-8.38-6.19-5.37-10.15-12.28-11.89-20.74-.71-3.45-1.08-7.1-1.13-10.94l5.69-229.96c.38-9.63,3.16-17.87,8.34-24.7,5.18-6.83,11.93-11.1,20.27-12.81,2.74-.56,5.6-.84,8.58-.83,8.97.15,16.49,2.95,22.57,8.4,6.08,5.45,10,12.47,11.76,21.04.71,3.46,1.02,7.11.95,10.97l-1.34,54.26Z"/>
      <path class="cls-1" d="M860.8,474.53c-2.07-17.68-3.84-44.74-5.3-81.19-1.22-19.5,6.52-32.12,23.22-37.85,4.76-1.46,9.26-2.19,13.53-2.19,16.21,0,27.06,8.11,32.55,24.32,1.46,4.27,2.19,12.13,2.19,23.59l-1.46,138.07c0,23.77-9.39,38.77-28.16,44.99-4.63,1.83-9.33,2.74-14.08,2.74-13.05,0-24.32-6.52-33.83-19.57l-39.68-52.85c1.58,15,2.74,36.88,3.48,65.65.97,21.7-8.29,35.9-27.8,42.61-4.75,1.83-9.39,2.74-13.9,2.74-13.17,0-25.12-7.01-35.84-21.03l-85.4-107.16c-7.8-9.75-12.8-18.1-14.99-25.05-1.22-3.05-1.83-6.15-1.83-9.33,0-9.02,3.93-16.92,11.8-23.68,7.86-6.77,16.37-10.15,25.51-10.15,11.82,0,21.82,5.79,29.99,17.37l47.91,66.2c-1.71-17.19-3.05-43.52-4.02-79-1.22-20.97,6.89-34.44,24.32-40.41,4.51-1.58,8.9-2.38,13.17-2.38,11.46,0,21.82,6.4,31.09,19.2l47.55,64.37Z"/>
      <path class="cls-1" d="M1324.43,600.75c-9.26.61-17.43-1.54-24.52-6.47-7.09-4.93-12.02-11.82-14.8-20.67-1.08-3.44-1.85-7.18-2.31-11.22l-7.41-98.95c-.27-3.43-.89-6.68-1.85-9.75-2.36-7.49-6.87-12.63-13.55-15.39-6.68-2.76-13.76-2.96-21.26-.61-12.66,3.98-18.37,13.95-17.13,29.9l7.84,99.02c.72,10.04-1.29,18.98-6.05,26.82-4.76,7.85-11.38,13.1-19.86,15.76-3.07.97-6.14,1.53-9.2,1.68-9.35.78-17.51-1.35-24.49-6.38-6.98-5.03-11.85-11.91-14.59-20.63-1.2-3.81-1.99-7.61-2.37-11.41l-11.96-151.41c-.64-10.2,1.4-19.18,6.11-26.94,4.72-7.76,11.38-13,19.98-15.7,16.1-5.06,29.19-2.09,39.27,8.92,6.96-6.64,15.78-11.65,26.48-15.01,7.01-2.2,14.95-3.55,23.84-4.05,21.3-1.84,40.13,2.31,56.47,12.43,16.35,10.12,27.56,24.83,33.62,44.12,2.24,7.13,3.74,14.69,4.5,22.69l8.16,109.05c1.05,10.2-.8,19.16-5.53,26.86-4.74,7.7-11.53,12.94-20.38,15.73-2.83.89-5.83,1.43-9.01,1.62Z"/>
      <path class="cls-1" d="M980.46,667.66c0-2.5.12-5.07.38-7.7l28.93-181.11-12.78-2.44c-20.29-3.01-30.44-14.53-30.44-34.57,0-10.27,3.35-19.07,10.05-26.4,6.7-7.33,15.18-10.99,25.46-10.99,2,0,4.01.25,6.01.75l53.92,8.45c9.52,1.63,16.84,5.7,21.98,12.21,5.13,6.51,7.7,14.16,7.7,22.92,0,2.25-.13,4.57-.38,6.95l-34.38,216.25c-1.76,10.52-6.01,18.79-12.78,24.8-6.76,6.01-14.91,9.02-24.43,9.02-11.02,0-20.32-3.54-27.9-10.61-7.58-7.07-11.37-16.25-11.37-27.52Z"/>
      <path class="cls-1" d="M1610.79,749.09c-4.28.73-8.48.84-12.61.32-17.62-2.22-28.44-13.1-32.45-32.65l-10.29-48.34c-19.75,16.68-42.81,23.37-69.18,20.05-22.87-2.88-42.87-13.46-59.99-31.74-16.38-17.17-26.96-37.48-31.75-60.94-3.59-16.83-4.34-33.56-2.25-50.18,2.74-21.75,10.01-40.19,21.82-55.34,13.28-16.74,31.01-27.52,53.21-32.34,9.25-1.88,18.62-2.23,28.13-1.03,9.25,1.16,17.49,3.73,24.74,7.69,4.57-11.1,13.51-18.04,26.81-20.81,4.31-.98,8.53-1.21,12.66-.69,17.37,2.19,28.19,13.01,32.48,32.47l47.35,225.92c1.1,5.34,1.34,10.58.69,15.7-2.23,17.75-12.02,28.39-29.35,31.92ZM1490.85,524.88c-13.96,2.94-22.07,13.47-24.36,31.59-.88,7-.46,14.23,1.27,21.68,1.99,10.41,6.05,19.24,12.19,26.48,6.13,7.25,13.14,11.37,21.01,12.36,3.12.39,6.18.27,9.19-.37,14.08-2.92,22.23-13.2,24.45-30.82.94-7.5.54-15.36-1.22-23.58-4.73-22.94-15.53-35.47-32.4-37.6-3.37-.42-6.75-.34-10.12.25Z"/>
      <path class="cls-1" d="M604.27,172.99c5.46-8.78,16.67-13.06,26.62-11.7,6.34,1.07,10.92,5.89,14.31,11.03,1.36,3.17,5.1,1.15,7.58.99,11.31-2.03,22.81-6.13,34.47-4.98,6.09.13,11.32,5.53,10.96,11.68.17,6.26-5.25,10.49-10.23,12.59-21.56,7.06-43.62,12.23-65.01,18.99-12.34,3.82-25.1,7-36.81,13.18-6.79,3.84-6.99,12.47-5.92,19.25,3.09,27.42,9.06,54.31,11.14,81.75.82,9.62,1.12,20.13-3.86,28.78-6.64,11.87-25.58,13.69-34.15,3.38-5.91-6.98-5.51-17.69-.38-24.87,4.55-6.52,4.88-14.68,4.1-22.29-4.83.79-10.35,2.78-15.12.03-6.8-3.72-8.09-13.21-3.65-19.2,4.1-5.39,10.67-8.16,15.73-12.8.01-2.78-.28-5.73-1.04-8.55-7.06-1.88-15.05-2.51-20.11-8.21-5.53-5.57-4.43-16.46,2.36-20.31,4.45-2.21,9.44-.52,14.12-.01-.32-11.51.45-24.59,8.86-33.65,11.6-12.2,28.87-14.57,43.7-21.33.51-4.68-.05-9.57,2.36-13.75ZM632.27,222.71c10.85-4.68,22.42-8.55,34.34-9.23,6.67-.53,13.54.65,18.76,5.04,6.05,4.68,9.55,12.06,11.57,19.59,4.09,14.28,5.3,29.09,9.86,43.25.99,2.76,1.88,6.05,4.16,7.96,2.8-1.76,1.6-6.23,3.39-8.98,2.42-6.96,11.54-8.65,16.89-3.78,4.32,3.88,5.32,10.42,6.31,15.96.42,7.2-.8,14.84-4.84,20.47-4.79,6.58-12.81,10.51-20.75,9.11-7.99-.63-15.12-6.53-19.73-13.36-10.26-15.65-12.61-34.69-17.65-52.5-1.44-4.41-3.94-9.03-8.46-10.84-4.88-2.22-10.18-1.3-15.12.03-8.83,1.87-16.92,5.56-24.75,10.19-2.57,1.7-5.61,3.53-6.67,7.09-.7,3.97.38,7.97,1.45,11.97,4,15.82,7.71,31.47,10,47.5.69,5.36,1.67,10.9-.01,15.89-3.15,8.92-15.4,11.2-21.55,4.28-4.04-4.71-4.27-11.21-5.09-17.04-2-19.64-4.84-39.56-10.26-58.78-1.64-6.12-3.89-12.57-4.18-19.3-.26-4.72,2.73-9.56,7.19-10.76,3.47-1.18,6.97-.36,10.29.76,7.75-5.87,16.06-10.62,24.85-14.5ZM655.9,256.21c4.59-4.51,13.27-1.3,14.27,5.24,1.04,8.55-3.03,15.95-4.42,23.89,6,5.45,13.85,8.38,17.82,15.64,3.73,7.32-1.77,16.87-9.46,16.41-6.39-.3-10.04-6.38-15.24-9.77-3.38,6.2-4.58,14.85-11.26,18.16-5.97,3.12-14.11-2.76-12.76-9.94,1.59-7.24,5.3-14.04,7.36-21.4-4.75-4.52-10.72-7.96-14.71-13.45-3.87-5.01.24-13.18,6.2-13.52,5.73-.28,10.24,4.31,15.01,7.06,3.27-5.67,2.42-13.51,7.18-18.32Z"/>
      <path class="cls-1" d="M937.53,160.94c-4.38,6.26-9.31,11.74-14.48,17.12,11.36.66,23.32,4.95,30.19,14.38,5.68,8.12,4.56,18.46,2.24,27.48-3.36,11.75-8.2,22.92-14.43,33.29-5.04,7.99-12.39,15.37-22.1,17.04-8.53,1.55-16.93-1.66-24.74-4.93-5.93-2.27-11.54-6.11-15.16-11.46-3.47-5.01-4.69-11.43-3.85-17.34,1.61-10.15,5.55-19.69,9.39-28.99-7.42,3.11-16.84,4.04-23.56-1.36-9.25-6.94-9.77-21.87-1.63-29.8,5.02-5.73,13.32-5.95,19.97-8.51,9.53-3.44,17.69-9.95,24.45-17.27-6.18-2.36-13-5.26-16.09-11.25-6.14-12.83.82-30.28,14.51-34.96,6.11-1.91,12.92-.44,18.75,2.07,15.78,6.89,32.41,11.55,48.98,15.62,7.2,1.91,14.49,5.82,17.69,13,3.45,7.27,1.42,15.56-2.22,22.1-4.26,7.44-12.69,12.43-21.35,11.38-9.16-1.24-17.87-5.13-26.55-7.61ZM906.68,229.02c-.22,5.02,6.42,8.4,10.4,5.39,3.4-2.95,5.25-7.06,7.01-10.92,1.7-4.45,3.16-8.99,2.44-13.8-.63-2.79-3.71-5.1-6.75-4.57-3.29.44-5.69,3.77-7.32,6.55-2.82,5.15-5.58,10.9-5.78,17.34ZM962.49,241.58c-2.17-.26-4.58-.62-7.12.11-6.21,2.16-11.41,12.07-9.2,18.86,1.83,4.1,5.69,5.86,9.06,7.43,13.84,5.29,27.74,11.17,42.62,13.75,4.33.52,9.94.68,14.09-4.24,4.59-5.33,5.82-14.49,1.73-18.6-6.4-6.98-16.08-7.57-24.49-10.78-8.69-2.47-17.47-4.7-26.68-6.52ZM1010.37,132.7c-7.63,2.18-14.71,14.77-11.73,23.27,2.5,6.05,8.6,6.4,13.58,7.46,10.95,2.49,21.99,4.73,31.36,10.58,3.12,1.48,5.54,5.52,3.74,10.21-2.57,8.93-9.73,15.82-10.72,25.08-.62,4.58,1.25,7.84,2.87,11.01l-21.27-5.87c-2.91-.55-5.84-2.52-6.93-6.33,1.05-4.98,3.1-9.58,5.39-14.09,2.52-5.84,4.36-13.63,1.3-18.2-3.34-6.09-11.77-4.78-16.89,1.19-5.46,6.13-9.17,14.34-13.18,21.87-3.46,8.31-7.3,17.6-6.43,26.44.66,7.9,6.52,11.84,12.05,13.67,10.68,4.65,22.6,6.09,32.47,12.14,3.86,1.76,6.83,6.58,5.4,12.55-2,7.45-5.37,15.51-10.39,21.24-4.4,4.83-9.55,2.01-14.41,5.82-6.75,5.07-9.56,17.59-5.48,23.96,5.85,9.89,18.35,11.27,28.65,3.59,10.64-7.83,18.6-21.22,24.78-34.43,5.41-12.66,10.55-26.84,8.59-39.49-1.73-10.29-8.6-16.04-15.44-20.35,4.94-1.79,10-4.67,13.75-10.04,7.9-10.29,14.49-23.07,17.24-36.18,2.01-9.71.1-19.51-5.1-25.18-9.99-10.9-23.87-15.36-37.29-18.79-8.13-1.69-16.67-3.83-25.91-1.13Z"/>
      <path class="cls-1" d="M1477.17,220.34c4.84-7.88,17.19-9.42,23.8-2.89,3.48,2.99,4.11,8.02,5.72,12.13,17-2.8,34.95-7.7,52.24-2.81,10.9,2.53,17.54,13.52,18.92,24.03,1.15,8.44.31,18.49-6.69,24.03-7.23,5.58-18.63,7.15-26.21,1.54-4.25-3.29-4.09-8.97-4.18-13.65.16-3.56-2.52-7.2-6.26-7.08-9.41-.04-18.27,2.38-27.18,4.58-2.11,0-2.29,2.38-2.89,3.93-3.52,20.27-9.98,40.02-19.62,58.12,7.7,7.23,5.49,18.53,7.34,27.99.27,2.29,1.46,5.55,4.47,5.36,6.72-1.48,10.82-8.49,17.49-10.19,5.73-1.73,12.19,2.01,13.87,7.52,2.03,7.07-1.02,14.56-5.14,20.4-7.76,10.64-18.9,18.73-31.05,23.28-8.72,3.09-20.16,2.32-25.72-5.85-7.3-9.67-5.83-22.21-6.68-33.53-9.42,6.3-18.94,14.27-30.88,13.38-9.58.23-17.68-8.79-17.18-18.3.61-7.89,6.57-13.9,12.6-18.51,19.86-15.41,34.74-37.48,40.83-62.08-7.39,1.63-14.39,5.05-20.75,9.27.61,8.09.56,17.5-5.07,23.9-6.19,8.18-20.1,10.06-26.88,1.69-5.46-7.73-5.39-18.08-4.58-27.18,1.44-9.48,2.7-20.8,11-26.85,5.28-3.75,12.12-1.49,16.87,1.92,9.72-4.96,19.98-9.57,30.21-13.23,2.19-.72,4.66-1.26,6.43-2.82,1.73-6.02,1.42-12.76,5.19-18.06ZM1501.43,295.34c2.38-7.34,11.54-10.53,18.53-7.6,7.41,3.77,12.1,11.2,19.56,15.19,5.93-5.07,9.16-12.82,15.64-17.54,9.12-5.53,22.69,2.76,21.77,13.53-.42,8.78-7.92,14.19-14.02,19.53,7.75,5.34,16.86,8.27,24.04,14.21,6.91,5.76,9.6,16.92,4.48,24.62-4.27,7.28-13.38,10.7-21.37,9.64-11.27-1.04-20.94-7.61-29.84-13.87-13.79-10.35-25.96-22.95-34.84-37.67-3.45-6.05-6.64-13.1-3.94-20.04Z"/>
      <path class="cls-1" d="M402.72,578.52c-.83-3.57-4.42-5.79-7.98-4.96l-6.53,1.53c-1.14-2.71-4.04-4.29-6.94-3.62-1.9.45-3.47,1.82-4.16,3.6-.03.06-.16.4-.34.87l-.26.22-44.72,10.46.07-5.32c-.02-2.58-1.88-4.78-4.34-5.25l-.5-.32c-2.84-3.91-9.86-10.81-23.58-9.82-6.97.5-12.8,3.9-16.42,9.56-1.08,1.69-1.89,3.56-2.4,5.58l-.46,2.28h0c-.24,1.34,0,3.71.11,4.2l2.46,8.52c.03.12.07.24.11.36-5.74,1.93-12.61,9.72-15.45,23.18-1.32,6.26-2.1,9.94-2.54,12.07l-2.3.55c-2.19.51-3.91,2.29-4.37,4.53l-2.67,24.02c-.29,2.1.63,4.3,2.37,5.57l.61.44,3.48,1.19-.39,4.01-.34.91-1.92,2.79c-.52.72-.86,1.51-1.02,2.38-.03.18-.06.36-.08.54l-1.62,11.3c-3.22.78-5.29,3.84-4.83,7.14l2.84,19.85.47,7.36-2.78,3.38c-.21.25-.39.5-.56.77-1.98,3.09-4.17,7.99-5.09,11.38l-8.14,37.62c-.3,1.2-.32,2.41-.31,3.03.05,1.88.77,3.67,2.04,5.06l.03.03c.09.64.15,1.22.17,1.59l-2.99,10.02-.05.17c-.45,1.74-.09,3.56.98,4.98l3.7,4.51,19.12-4.44c1.65-.31,3.11-1.28,4.15-2.76,1.21-1.72,1.7-3.97,1.31-6.05l-1.66-10.95c-.04-.28-.1-.55-.17-.83l21.54-41.78c.74-1.51,1.58-3.9,1.97-5.68l6.15-30.98c.24.23.47.46.68.67,1.23,1.22,2.4,2.37,3.21,3.11,1.63,1.49,9.95,9.05,13.67,11.59.56.38,1.17.67,1.81.91l-3.86,13.04c-.23.77-.34,1.56-.32,2.37l.37,18.62c-.03.53-.03,1.06,0,1.57l-.58,14.02.08.34c-.02.08-.04.16-.06.23-.2.89-.54,2.36-.26,4.21l.87,9.45.05.39c.26,1.48,1.12,2.81,2.38,3.64,1.25.83,2.82,1.11,4.25.77l21.92-5s1.68-.42,2.65-.68c.28-.08.74-.23,1.03-.34,3.12-1.16,5.3-2.15,6.83-3.11.11-.07.22-.13.32-.21,1.46-.94,2.51-1.98,3.23-3.19.67-1.14,2.08-3.51,1.7-6.52l-.19-1c-.06-.27-.15-.53-.24-.77-.06-.18-.14-.35-.21-.52l-.3-1.48-1.4-.8-.14-.1c-.62-.49-1.32-.85-1.92-1.02-.36-.11-.74-.19-1.13-.23l-10.47-.67-.47-.43,2.17-3.43c.53-.81.88-1.74,1.01-2.59l7.31-42.21c.06-.33.1-.66.11-1,.19-3.71-1.06-7.2-2.31-10.12-.83-1.94-3.2-4.79-10.13-12.18-.57-.61-1.05-1.12-1.37-1.47-1.8-1.96-12.96-13.96-15.62-16.81-.56-.6-1.18-1.09-1.85-1.48l-1.28-4.22c1.37-1.12,2.38-2.66,2.85-4.44l5.13-19.33c.22-.83.26-1.69.11-2.51l1.73.5c2.56.75,5.28.57,7.65-.49,2.46-1.1,5.3-3.01,7.07-4.75,1.07-1.06,1.83-2.39,2.21-3.84l.31-1.67c1.12.06,2.25-.17,3.29-.67l9.86-4.75c2.73-1.32,3.9-4.62,2.56-7.47l-4.61-9.25.09-.26c.27-.74.41-1.52.44-2.31v-.1s-.04-2.94-.04-2.94l25.75-5.98c2.24-.52,4.14-1.88,5.35-3.83.85-1.37,1.3-2.93,1.3-4.51l6.71-1.57c1.73-.4,3.2-1.46,4.13-2.96.94-1.51,1.23-3.29.83-5.02Z"/>
      <g>
        <path class="cls-1" d="M1250.06,114.9l-19.17,76.8c-1.99,6.23-5.25,8.22-7.3,8.89-3.54,1.15-6.26.97-8.4.1-.59-.24-7-4.12-7.43-4.58l-5.64-4.61c-2.07-2.21-2.93-5.3-2.29-8.26l16.12-75.35c1.23-5.76,5.49-10.41,11.13-12.13l63.63-19.44c7.99-2.44,16.67-.49,22.85,5.12l47.93,43.55c5.86,5.33,8.43,13.39,6.73,21.13l-12.56,57.12c-2.09,9.49-9.07,17.15-18.32,20.1l-58.85,18.79c-5.74,1.83-12,.84-16.9-2.67l-10.2-7.31c-2.5-1.79-5.74-2.23-8.62-1.15l-5.93,2.21c-6.54,2.44-8.13,10.97-2.91,15.6l18.08,16.02c6.3,5.58,15.09,7.4,23.09,4.78l76.07-24.91c13.35-4.37,23.3-15.59,26.06-29.36l12.88-64.3c3.64-18.17-2.9-36.89-17.08-48.83l-53.55-45.12c-6.45-5.44-15.24-7.19-23.28-4.65l-77.68,24.55c-11.86,3.75-20.88,13.43-23.79,25.52l-18.04,74.93c-2.84,11.78,1.19,24.15,10.42,32.01l12.86,10.94c7.11,6.05,16.6,8.53,25.77,6.73l6.81-1.34c9.06-1.78,16.23-8.71,18.32-17.7l21.14-91c.93-4-2.06-7.84-6.17-7.93l-8.29-.17c-3.59-.07-6.73,2.4-7.5,5.91Z"/>
        <path class="cls-1" d="M1344.6,163.02l-7.81-1.64c-2.52-.53-4.43-2.74-4.36-5.32.25-9.43-6.54-14.83-18.25-17.42-16.94-6.66-30.12,10.19-7.59,15.34,26.92,10.38,46.47,21.79,41.06,39.54-8.61,34.98-89.43,23.02-85.97-15.42h0c.78-4.17,4.72-6.96,8.91-6.32l3.65.56c3.74.58,6.93,3.4,7.45,7.14,1.81,12.99,35.71,21.9,43.72,12.8,3.26-6.87-6.45-9.97-36.28-23.42-14.35-6.47-17.37-18.62-13.53-33.33,7.46-32.14,63.03-21.64,76.08,5,3.1,9.12,1.68,11.34,1.39,15.23-1.79,4.92-4.76,7.95-8.47,7.24Z"/>
      </g>
    </g>
  </g>
</svg>