<svg width="7425" height="7425" xmlns="http://www.w3.org/2000/svg" xmlns:xlink="http://www.w3.org/1999/xlink" xml:space="preserve" overflow="hidden"><defs><clipPath id="clip0"><rect x="0" y="0" width="7425" height="7425"/></clipPath></defs><g clip-path="url(#clip0)"><path d="M4249.22 13.6385C4385.25-20.6066 4537.34 10.0018 4644.89 101.375 4825.91 244.722 4857.12 536.267 4709.27 714.165 4424.64 1045.71 4139.09 1376.35 3854.15 1707.6 3779.78 1795.18 3658.14 1839.43 3544.98 1819.13 3431.06 1801.85 3330.48 1719.72 3289.43 1612.44 3249.44 1514.09 3261.55 1397.57 3318.81 1308.47 3536.5 950.097 3754.18 591.728 3971.25 232.904 4029.42 126.075 4130.91 43.7935 4249.22 13.6385Z" fill="#EB2D4B" fill-rule="evenodd"/><path d="M4506.16 1391.32C4615.74 1353.75 4746.24 1381.78 4825.5 1467.81 4874.16 1517.5 4902.04 1585.21 4907.35 1654.28 4953.12 2134.61 4999.65 2614.79 5045.11 3095.12 5060.42 3229.63 5014.5 3370.8 4915.23 3464.41 4774.73 3607.71 4532.23 3629.52 4365.97 3518.79 4231.69 3432.45 4150.6 3270.07 4167.12 3110.72 4214.11 2620.09 4260.79 2129.31 4308.53 1638.68 4319.59 1527.04 4400.53 1427.67 4506.16 1391.32Z" fill="#EB2D4B" fill-rule="evenodd"/><path d="M446.677 1408.13C625.29 1359.04 831.327 1431.93 931.161 1589.81 1156.44 1960.29 1380.95 2331.37 1606.23 2702 1651.07 2773.52 1670.01 2861.86 1652.59 2945.04 1633.04 3060.35 1546.54 3160.51 1435.95 3197.94 1309.9 3243.85 1157.95 3204.91 1071.6 3101.87 788.907 2773.22 505.61 2445.16 223.068 2116.51 92.1747 1964.38 88.0839 1721.79 212.766 1564.81 270.941 1488.9 354.264 1432.68 446.677 1408.13Z" fill="#EB2D4B" fill-rule="evenodd"/><path d="M1719.31 1696.05C1773.54 1678.32 1832.31 1678.32 1887.61 1690.74 2366.9 1797.86 2846.65 1902.7 3325.64 2010.88 3540.14 2061.03 3689.5 2290.57 3649.51 2507.07 3622.25 2711.46 3433.8 2876.45 3228.24 2879.63 3159.77 2882.66 3091.75 2866.75 3029.49 2839.48 2583.22 2645.4 2136.79 2451.62 1690.53 2257.84 1579.94 2211.33 1507.38 2092.39 1512.23 1973.15 1513.74 1849.37 1601.45 1733.16 1719.31 1696.05Z" fill="#EB2D4B" fill-rule="evenodd"/><path d="M5520.73 2905.92C5635.43 2863.49 5753.46 2911.38 5866.34 2935.17 6229.83 3020.94 6593.31 3106.41 6956.95 3191.88 7046.65 3212.64 7130.74 3259.77 7191.35 3329.62 7288.47 3436.16 7325.75 3592.55 7289.23 3731.96 7260.14 3854.86 7173.17 3961.39 7060.74 4018.07 6946.65 4075.66 6807.86 4080.66 6690.13 4030.8 6290.74 3862.59 5890.58 3695.59 5491.18 3527.38 5371.33 3475.86 5289.67 3347.51 5295.27 3216.88 5294.36 3078.98 5389.82 2948.5 5520.73 2905.92Z" fill="#EB2D4B" fill-rule="evenodd"/><path d="M2003.96 3114.96C2202.98 3063.01 2426.54 3171.76 2509.24 3359.73 2579.97 3511.5 2554.98 3702.65 2445.02 3829.43 2134.82 4180.53 1824.48 4531.47 1514.28 4882.57 1479.14 4922.41 1445.52 4965.58 1398.87 4992.69 1284.36 5064.03 1120.93 5046.15 1027.93 4947.1 934.633 4856.52 913.883 4703.08 978.103 4590.24 1227.11 4167.5 1476.11 3744.76 1725.88 3322.32 1784.94 3218.72 1887.94 3141.93 2003.96 3114.96Z" fill="#EB2D4B" fill-rule="evenodd"/><path d="M5685.7 3945.58C5801.85 3914.97 5935.57 3959.07 6005.08 4058.49 6080.5 4158.68 6082.16 4306.3 6010.68 4409.05 5977.97 4458.01 5929.21 4494.23 5875.45 4517.12 5432.96 4708.99 4990.46 4901.32 4548.27 5093.96 4423.63 5150.79 4272.5 5147.46 4152.11 5081.83 4009.91 5006.36 3916.48 4848.58 3921.17 4687.32 3919.35 4490.44 4067.15 4305.39 4259.02 4263.1 4734.53 4156.86 5210.34 4052.28 5685.7 3945.58Z" fill="#EB2D4B" fill-rule="evenodd"/><path d="M2688.92 4514.98C2871.48 4457.86 3086.92 4532.86 3187.97 4696.79 3439.91 5121.61 3689.89 5547.79 3941.08 5973.21 3993.05 6059.27 3998.35 6171.38 3954.11 6261.83 3908.05 6358.79 3805.94 6426.81 3698.23 6429.39 3609.9 6435.3 3520.67 6398.03 3460.97 6333.19 3167.67 6000.48 2873.45 5668.84 2580.14 5336.29 2502.57 5249.17 2412.73 5162.51 2388.79 5043.43 2329.1 4824.05 2469.39 4575.13 2688.92 4514.98Z" fill="#EB2D4B" fill-rule="evenodd"/><path d="M1873.33 5152.04C2039.87 5110.07 2225.04 5218.71 2268.38 5384.77 2316.27 5538.71 2233.83 5719.78 2084.87 5782.66 1682.24 5951.6 1279.62 6120.84 876.534 6288.88 693.934 6364.48 465.572 6298.27 354.043 6134.48 263.727 6009.17 247.665 5835.39 312.068 5695.08 366.013 5572.96 479.362 5480.38 609.074 5449.47 1030.49 5350.53 1451.91 5250.98 1873.33 5152.04Z" fill="#EB2D4B" fill-rule="evenodd"/><path d="M4523.66 5364.63C4628.27 5336.76 4745.46 5364.78 4826.88 5435.97 4895.71 5494.89 4936.79 5583.2 4941.19 5673.47 4972.73 6056.68 5004.56 6439.59 5036.55 6822.65 5042.62 6893.54 5050.8 6964.73 5045.04 7035.92 5032.46 7163.91 4957.26 7282.96 4849.92 7352.94 4725.91 7435.79 4558.84 7447.75 4423.45 7385.96 4261.08 7314.62 4153.29 7137.85 4166.02 6960.79 4197.55 6571.37 4231.06 6182.1 4262.75 5792.83 4272.45 5707.4 4266.54 5616.67 4307.32 5538.21 4349.46 5452.33 4430.58 5387.35 4523.66 5364.63Z" fill="#EB2D4B" fill-rule="evenodd"/></g></svg>